<svg xmlns="http://www.w3.org/2000/svg" style="display: none;">

  <symbol id="icon-html" viewBox="0 0 512 512">
    <svg xmlns="http://www.w3.org/2000/svg" enable-background="new 0 0 24 24" viewBox="0 0 24 24"
      id="html">
      <polygon fill="#E44D26"
        points="3.345 21.601 1.419 0 22.581 0 20.653 21.598 11.987 24 3.345 21.601"></polygon>
      <polygon fill="#F16529" points="12 22.164 19.002 20.222 20.65 1.766 12 1.766"></polygon>
      <path fill="#EBEBEB"
        d="M12,9.778H8.495L8.252,7.065H12v-2.65H5.357l0.063,0.711l0.651,7.3H12V9.778L12,9.778z M12,16.658l-0.012,0.003l-2.95-0.797l-0.189-2.113H6.19l0.371,4.16l5.427,1.507L12,19.414V16.658L12,16.658z"></path>
      <path fill="#FFF"
        d="M11.991,9.778v2.649h3.263l-0.308,3.436l-2.955,0.797v2.756l5.431-1.505l0.04-0.448l0.623-6.974l0.064-0.712h-0.714H11.991L11.991,9.778z M11.991,4.415v2.65h6.399l0.053-0.596l0.121-1.343l0.063-0.711H11.991L11.991,4.415z"></path>
      <polygon fill="#DEDEDE" points="12 23.996 11.987 24 12 24 12 23.996"></polygon>
      <path fill="#C64321"
        d="M12,7.065L12,7.065H8.252l0.242,2.713h3.496H12V7.065L12,7.065z M12,0H1.419l1.926,21.601L11.987,24L12,23.996v-4.582v0l-0.012,0.004l-5.427-1.507l-0.371-4.16h2.659l0.189,2.113l2.95,0.797l0.003-0.001v0L12,16.658v-4.231H6.071l-0.651-7.3L5.357,4.415h6.634H12V0L12,0z"></path>
      <path fill="#CDCDCD"
        d="M8.849,13.751H6.19l0.371,4.16l5.427,1.507L12,19.414v0l-0.009,0.002v-2.756l-0.003,0.001l-2.95-0.797L8.849,13.751L8.849,13.751z M11.991,4.415H5.357l0.063,0.711l0.651,7.3H12h-0.009V9.778H8.495L8.252,7.065H12h-0.009V4.415L11.991,4.415z"></path>
      <path fill="#DEDEDE"
        d="M12,16.658l-0.009,0.002v0v2.756L12,19.414V16.658L12,16.658z M12,9.778h-0.009v2.649H12V9.778L12,9.778z M12,4.415h-0.009v2.65H12V4.415L12,4.415z"></path>
    </svg>
  </symbol>

  <symbol id="icon-css" viewBox="0 0 512 512">
    <svg xmlns="http://www.w3.org/2000/svg" xml:space="preserve" viewBox="0 0 16 16" id="css">
      <path fill="#2196F3" d="m1 0 1.275 14.4L8 16l5.723-1.599L15 0z"></path>
      <path fill="#FAFAFA" d="m12.274 4.709-.161 1.809-.486 5.423L8 12.944l-.003.001-3.625-1.004-.253-2.836h1.776l.132 1.471 1.971.532.001-.001 1.974-.532.269-2.451-6.208.017-.176-1.676 6.533-.077.132-1.794-6.84.019-.115-1.669h8.864z"></path>
    </svg>
  </symbol>


  <symbol id="icon-js" viewBox="0 0 512 512">
    <svg xmlns="http://www.w3.org/2000/svg" viewBox="0 0 24 24" id="javascript">
      <path fill="#F0D91F" d="M0 0h24v24H0z"></path>
      <path
        d="M19.784 18.629c-.255-.961-2.251-1.185-3.616-2.205-1.38-.93-1.709-3.18-.569-4.471.39-.48 1.034-.84 1.71-1.005l.705-.089c1.365-.031 2.204.329 2.834 1.034.182.179.316.36.586.78-.721.449-.721.449-1.755 1.125-.226-.48-.586-.78-.976-.9-.6-.18-1.365.014-1.515.66-.059.195-.045.375.046.705.243.555 1.061.795 1.797 1.14 2.115.858 2.828 1.778 3.003 2.873l-.046-.067c.166.945-.045 1.56-.074 1.65-.781 2.67-5.131 2.76-6.871 1.004-.36-.42-.6-.629-.81-1.109l1.83-1.051c.495.75.944 1.156 1.755 1.336 1.096.135 2.206-.24 1.966-1.41zm-11.651.347c.017 0 .064.091.127.196.233.389.434.659.83.855.386.121 1.236.209 1.566-.48.201-.348.138-1.479.138-2.711 0-1.941.009-3.867.009-5.805h2.248l-.004.056c0 2.07.012 4.125 0 6.179.005 1.276.113 2.416-.397 3.346-.353.72-1.028 1.185-1.811 1.411-1.203.27-2.352.105-3.207-.405-.574-.345-1.019-.887-1.324-1.517l1.825-1.125z"></path>
    </svg>
  </symbol>

  <symbol id="icon-c" viewBox="0 0 512 512">
    <svg xmlns="http://www.w3.org/2000/svg" viewBox="0 0 128 128" id="c">
      <path fill="#659AD3"
        d="M115.4 30.7l-48.3-27.8c-.8-.5-1.9-.7-3.1-.7-1.2 0-2.3.3-3.1.7l-48 27.9c-1.7 1-2.9 3.5-2.9 5.4v55.7c0 1.1.2 2.4 1 3.5l106.8-62c-.6-1.2-1.5-2.1-2.4-2.7z"></path>
      <path fill="#03599C"
        d="M10.7 95.3c.5.8 1.2 1.5 1.9 1.9l48.2 27.9c.8.5 1.9.7 3.1.7 1.2 0 2.3-.3 3.1-.7l48-27.9c1.7-1 2.9-3.5 2.9-5.4v-55.7c0-.9-.1-1.9-.6-2.8l-106.6 62z"></path>
      <path fill="#fff"
        d="M85.3 76.1c-4.2 7.4-12.2 12.4-21.3 12.4-13.5 0-24.5-11-24.5-24.5s11-24.5 24.5-24.5c9.1 0 17.1 5 21.3 12.5l13-7.5c-6.8-11.9-19.6-20-34.3-20-21.8 0-39.5 17.7-39.5 39.5s17.7 39.5 39.5 39.5c14.6 0 27.4-8 34.2-19.8l-12.9-7.6z"></path>
    </svg>
  </symbol>

  <symbol id="icon-cs" viewBox="0 0 512 512">
    <svg xmlns="http://www.w3.org/2000/svg" viewBox="0 0 128 128" id="csharp">
      <path fill="#68217A"
        d="M109 50h-4.8l-1.2 6h-3.8l1.2-6h-4.9l-1.2 6h-5.3v5h4.4l-.9 4h-3.5v5h2.5l-1.2 6h4.8l1.2-6h3.8l-1.2 6h4.9l1.2-6h5v-5h-4.1l.9-4h3.2v-5h-2.2l1.2-6zm-7.9 15h-3.8l.9-4h3.8l-.9 4zM116.5 32.3c-.6-1.1-1.4-2.1-2.3-2.6l-48.1-27.8c-.8-.5-1.9-.7-3.1-.7-1.2 0-2.3.3-3.1.7l-48.5 27.8c-1.7 1-3.4 3.5-3.4 5.4v55.7c0 1.1.7 2.3 1.4 3.4l.1.1c.5.8 1.3 1.5 2 1.9l48.3 27.9c.8.5 2 .7 3.2.7 1.2 0 2.3-.3 3.1-.7l47.5-27.9c1.7-1 2.4-3.5 2.4-5.4v-55.7c0-.8.4-1.8 0-2.6l.5-.2zm-4.2 2.1c0 .3-.3.5-.3.7v55.7c0 .8-.2 1.7-.4 2l-47.6 27.8c-.1.1-.5.2-1.1.2-.6 0-1-.1-1.1-.2l-48.2-27.8s-.1-.1-.2-.1l-.6-.6c-.4-.7.2-1.1-.8-1.2v-55.7c1-.5.9-1.7 1.4-1.9l48.3-27.9c.1 0 .6-.2 1.2-.2s1 .1 1.1.2l48 27.7.4.9c.1.1-.1.3-.1.4zM63 87.5c-13.5 0-24.5-11-24.5-24.5s11-24.5 24.5-24.5c9.1 0 17.1 5 21.3 12.5l13-7.5c-6.8-11.9-19.6-20-34.3-20-21.8 0-39.5 17.7-39.5 39.5s17.7 39.5 39.5 39.5c14.6 0 27.4-8 34.2-19.8l-12.9-7.6c-4.2 7.4-12.2 12.4-21.3 12.4z"></path>
    </svg>
  </symbol>

  <symbol id="icon-python" viewBox="0 0 512 512">
    <svg xmlns="http://www.w3.org/2000/svg" viewBox="0 0 24 24" id="python">
      <path d="M18.231 7.357h.001v-.004z"></path>
      <path fill="#F2BB30"
        d="M20.699 17.748c1.666 0 2.282-1.162 2.861-2.904.6-1.794.574-3.52 0-5.818-.413-1.655-1.194-2.904-2.861-2.904h-2.147v2.541c0 1.971-1.672 3.632-3.578 3.632H9.252c-1.565 0-2.861 1.339-2.861 2.909v5.454c0 1.553 1.35 2.464 2.861 2.909 1.81.53 3.552.626 5.721 0 1.441-.418 2.861-1.26 2.861-2.909v-2.181h-5.717v-.728h8.582zm-5.367 2.181c.594 0 1.077.488 1.077 1.088 0 .606-.482 1.093-1.077 1.093a1.09 1.09 0 0 1-1.077-1.093 1.088 1.088 0 0 1 1.077-1.088z"></path>
      <path fill="#35668F"
        d="M3.444 17.749H5.41v-2.615c0-1.891 1.634-3.558 3.578-3.558h5.721c1.591 0 2.861-1.312 2.861-2.909V3.209c0-1.553-1.307-2.717-2.861-2.978-1.918-.317-4.002-.299-5.721.006l.001-.001c-2.422.428-2.86 1.322-2.86 2.977v2.181h5.727v.729H3.98C2.314 6.123.856 7.125.402 9.027c-.525 2.181-.546 3.541 0 5.818.406 1.693 1.377 2.904 3.042 2.904zM8.63 3.937a1.084 1.084 0 0 1-1.077-1.088A1.089 1.089 0 0 1 8.63 1.756c.59 0 1.077.492 1.077 1.093S9.225 3.937 8.63 3.937z"></path>
    </svg>
  </symbol>

  <symbol id="icon-haskell" viewBox="0 0 512 512">
    <svg xmlns="http://www.w3.org/2000/svg" viewBox="0 0 17 12">
      <path fill="#453a62" d="M 0 12 L 4 6 L 0 0 L 3 0 L 7 6 L 3 12" />
      <path fill="#5e5086" d="M 4 12 L 8 6 L 4 0 L 7 0 L 15 12 L 12 12 L 9.5 8.25 L 7 12" />
      <path fill="#8f4e8b"
        d="M 13.66 8.5 L 12.333 6.5 L 17 6.5 L 17 8.5 M 11.666 5.5 L 10.333 3.5 L 17 3.5 L 17 5.5" />
    </svg>
  </symbol>

  <symbol id="icon-java" viewBox="0 0 512 512">
    <svg xmlns="http://www.w3.org/2000/svg" viewBox="0 0 128 128" id="java">
      <path fill="#0074BD"
        d="M47.617 98.12s-4.767 2.774 3.397 3.71c9.892 1.13 14.947.968 25.845-1.092 0 0 2.871 1.795 6.873 3.351-24.439 10.47-55.308-.607-36.115-5.969zM44.629 84.455s-5.348 3.959 2.823 4.805c10.567 1.091 18.91 1.18 33.354-1.6 0 0 1.993 2.025 5.132 3.131-29.542 8.64-62.446.68-41.309-6.336z"></path>
      <path fill="#EA2D2E"
        d="M69.802 61.271c6.025 6.935-1.58 13.17-1.58 13.17s15.289-7.891 8.269-17.777c-6.559-9.215-11.587-13.792 15.635-29.58 0 .001-42.731 10.67-22.324 34.187z"></path>
      <path fill="#0074BD"
        d="M102.123 108.229s3.529 2.91-3.888 5.159c-14.102 4.272-58.706 5.56-71.094.171-4.451-1.938 3.899-4.625 6.526-5.192 2.739-.593 4.303-.485 4.303-.485-4.953-3.487-32.013 6.85-13.743 9.815 49.821 8.076 90.817-3.637 77.896-9.468zM49.912 70.294s-22.686 5.389-8.033 7.348c6.188.828 18.518.638 30.011-.326 9.39-.789 18.813-2.474 18.813-2.474s-3.308 1.419-5.704 3.053c-23.042 6.061-67.544 3.238-54.731-2.958 10.832-5.239 19.644-4.643 19.644-4.643zM90.609 93.041c23.421-12.167 12.591-23.86 5.032-22.285-1.848.385-2.677.72-2.677.72s.688-1.079 2-1.543c14.953-5.255 26.451 15.503-4.823 23.725 0-.002.359-.327.468-.617z"></path>
      <path fill="#EA2D2E"
        d="M76.491 1.587s12.968 12.976-12.303 32.923c-20.266 16.006-4.621 25.13-.007 35.559-11.831-10.673-20.509-20.07-14.688-28.815 8.548-12.834 32.229-19.059 26.998-39.667z"></path>
      <path fill="#0074BD"
        d="M52.214 126.021c22.476 1.437 57-.8 57.817-11.436 0 0-1.571 4.032-18.577 7.231-19.186 3.612-42.854 3.191-56.887.874 0 .001 2.875 2.381 17.647 3.331z"></path>
    </svg>
  </symbol>

  <symbol id="icon-react" viewBox="0 0 512 512">
    <svg xmlns="http://www.w3.org/2000/svg" enable-background="new 0 0 128 128"
      viewBox="0 0 128 128" id="react">
      <g fill="#61DAFB">
        <circle cx="64" cy="64" r="11.4"></circle>
        <path
          d="M107.3 45.2c-2.2-.8-4.5-1.6-6.9-2.3.6-2.4 1.1-4.8 1.5-7.1 2.1-13.2-.2-22.5-6.6-26.1-1.9-1.1-4-1.6-6.4-1.6-7 0-15.9 5.2-24.9 13.9-9-8.7-17.9-13.9-24.9-13.9-2.4 0-4.5.5-6.4 1.6-6.4 3.7-8.7 13-6.6 26.1.4 2.3.9 4.7 1.5 7.1-2.4.7-4.7 1.4-6.9 2.3-12.5 4.8-19.3 11.4-19.3 18.8s6.9 14 19.3 18.8c2.2.8 4.5 1.6 6.9 2.3-.6 2.4-1.1 4.8-1.5 7.1-2.1 13.2.2 22.5 6.6 26.1 1.9 1.1 4 1.6 6.4 1.6 7.1 0 16-5.2 24.9-13.9 9 8.7 17.9 13.9 24.9 13.9 2.4 0 4.5-.5 6.4-1.6 6.4-3.7 8.7-13 6.6-26.1-.4-2.3-.9-4.7-1.5-7.1 2.4-.7 4.7-1.4 6.9-2.3 12.5-4.8 19.3-11.4 19.3-18.8s-6.8-14-19.3-18.8zm-14.8-30.5c4.1 2.4 5.5 9.8 3.8 20.3-.3 2.1-.8 4.3-1.4 6.6-5.2-1.2-10.7-2-16.5-2.5-3.4-4.8-6.9-9.1-10.4-13 7.4-7.3 14.9-12.3 21-12.3 1.3 0 2.5.3 3.5.9zm-11.2 59.3c-1.8 3.2-3.9 6.4-6.1 9.6-3.7.3-7.4.4-11.2.4-3.9 0-7.6-.1-11.2-.4-2.2-3.2-4.2-6.4-6-9.6-1.9-3.3-3.7-6.7-5.3-10 1.6-3.3 3.4-6.7 5.3-10 1.8-3.2 3.9-6.4 6.1-9.6 3.7-.3 7.4-.4 11.2-.4 3.9 0 7.6.1 11.2.4 2.2 3.2 4.2 6.4 6 9.6 1.9 3.3 3.7 6.7 5.3 10-1.7 3.3-3.4 6.6-5.3 10zm8.3-3.3c1.5 3.5 2.7 6.9 3.8 10.3-3.4.8-7 1.4-10.8 1.9 1.2-1.9 2.5-3.9 3.6-6 1.2-2.1 2.3-4.2 3.4-6.2zm-25.6 27.1c-2.4-2.6-4.7-5.4-6.9-8.3 2.3.1 4.6.2 6.9.2 2.3 0 4.6-.1 6.9-.2-2.2 2.9-4.5 5.7-6.9 8.3zm-18.6-15c-3.8-.5-7.4-1.1-10.8-1.9 1.1-3.3 2.3-6.8 3.8-10.3 1.1 2 2.2 4.1 3.4 6.1 1.2 2.2 2.4 4.1 3.6 6.1zm-7-25.5c-1.5-3.5-2.7-6.9-3.8-10.3 3.4-.8 7-1.4 10.8-1.9-1.2 1.9-2.5 3.9-3.6 6-1.2 2.1-2.3 4.2-3.4 6.2zm25.6-27.1c2.4 2.6 4.7 5.4 6.9 8.3-2.3-.1-4.6-.2-6.9-.2-2.3 0-4.6.1-6.9.2 2.2-2.9 4.5-5.7 6.9-8.3zm22.2 21l-3.6-6c3.8.5 7.4 1.1 10.8 1.9-1.1 3.3-2.3 6.8-3.8 10.3-1.1-2.1-2.2-4.2-3.4-6.2zm-54.5-16.2c-1.7-10.5-.3-17.9 3.8-20.3 1-.6 2.2-.9 3.5-.9 6 0 13.5 4.9 21 12.3-3.5 3.8-7 8.2-10.4 13-5.8.5-11.3 1.4-16.5 2.5-.6-2.3-1-4.5-1.4-6.6zm-24.7 29c0-4.7 5.7-9.7 15.7-13.4 2-.8 4.2-1.5 6.4-2.1 1.6 5 3.6 10.3 6 15.6-2.4 5.3-4.5 10.5-6 15.5-13.8-4-22.1-10-22.1-15.6zm28.5 49.3c-4.1-2.4-5.5-9.8-3.8-20.3.3-2.1.8-4.3 1.4-6.6 5.2 1.2 10.7 2 16.5 2.5 3.4 4.8 6.9 9.1 10.4 13-7.4 7.3-14.9 12.3-21 12.3-1.3 0-2.5-.3-3.5-.9zm60.8-20.3c1.7 10.5.3 17.9-3.8 20.3-1 .6-2.2.9-3.5.9-6 0-13.5-4.9-21-12.3 3.5-3.8 7-8.2 10.4-13 5.8-.5 11.3-1.4 16.5-2.5.6 2.3 1 4.5 1.4 6.6zm9-15.6c-2 .8-4.2 1.5-6.4 2.1-1.6-5-3.6-10.3-6-15.6 2.4-5.3 4.5-10.5 6-15.5 13.8 4 22.1 10 22.1 15.6 0 4.7-5.8 9.7-15.7 13.4z"></path>
      </g>
    </svg>
  </symbol>

  <symbol id="icon-angular" viewBox="0 0 512 512">
    <svg xmlns="http://www.w3.org/2000/svg" width="512" height="512"
      preserveAspectRatio="xMidYMid" viewBox="0 0 256 286" id="angular">
      <path fill="#E23237"
        d="M.1 45.522L125.908.697l129.196 44.028-20.919 166.45-108.277 59.966-106.583-59.169L.1 45.522z"></path>
      <path fill="#B52E31" d="M255.104 44.725L125.908.697v270.444l108.277-59.866 20.919-166.55z"></path>
      <path fill="#FFF"
        d="M126.107 32.274L47.714 206.693l29.285-.498 15.739-39.347h70.325l17.233 39.845 27.99.498-82.179-174.917zm.2 55.882l26.496 55.383h-49.806l23.31-55.383z"></path>
    </svg>
  </symbol>

  <symbol id="icon-sql" viewBox="0 0 512 512">
    <svg xmlns="http://www.w3.org/2000/svg" width="512" height="512"
      preserveAspectRatio="xMinYMin meet" viewBox="0 0 256 264" id="postgresql">
      <path
        d="M255.008 158.086c-1.535-4.649-5.556-7.887-10.756-8.664-2.452-.366-5.26-.21-8.583.475-5.792 1.195-10.089 1.65-13.225 1.738 11.837-19.985 21.462-42.775 27.003-64.228 8.96-34.689 4.172-50.492-1.423-57.64C233.217 10.847 211.614.683 185.552.372c-13.903-.17-26.108 2.575-32.475 4.549-5.928-1.046-12.302-1.63-18.99-1.738-12.537-.2-23.614 2.533-33.079 8.15-5.24-1.772-13.65-4.27-23.362-5.864-22.842-3.75-41.252-.828-54.718 8.685C6.622 25.672-.937 45.684.461 73.634c.444 8.874 5.408 35.874 13.224 61.48 4.492 14.718 9.282 26.94 14.237 36.33 7.027 13.315 14.546 21.156 22.987 23.972 4.731 1.576 13.327 2.68 22.368-4.85 1.146 1.388 2.675 2.767 4.704 4.048 2.577 1.625 5.728 2.953 8.875 3.74 11.341 2.835 21.964 2.126 31.027-1.848.056 1.612.099 3.152.135 4.482.06 2.157.12 4.272.199 6.25.537 13.374 1.447 23.773 4.143 31.049.148.4.347 1.01.557 1.657 1.345 4.118 3.594 11.012 9.316 16.411 5.925 5.593 13.092 7.308 19.656 7.308 3.292 0 6.433-.432 9.188-1.022 9.82-2.105 20.973-5.311 29.041-16.799 7.628-10.86 11.336-27.217 12.007-52.99.087-.729.167-1.425.244-2.088l.16-1.362 1.797.158.463.031c10.002.456 22.232-1.665 29.743-5.154 5.935-2.754 24.954-12.795 20.476-26.351"></path>
      <path fill="#336791"
        d="M237.906 160.722c-29.74 6.135-31.785-3.934-31.785-3.934 31.4-46.593 44.527-105.736 33.2-120.211-30.904-39.485-84.399-20.811-85.292-20.327l-.287.052c-5.876-1.22-12.451-1.946-19.842-2.067-13.456-.22-23.664 3.528-31.41 9.402 0 0-95.43-39.314-90.991 49.444.944 18.882 27.064 142.873 58.218 105.422 11.387-13.695 22.39-25.274 22.39-25.274 5.464 3.63 12.006 5.482 18.864 4.817l.533-.452c-.166 1.7-.09 3.363.213 5.332-8.026 8.967-5.667 10.541-21.711 13.844-16.235 3.346-6.698 9.302-.471 10.86 7.549 1.887 25.013 4.561 36.813-11.958l-.47 1.885c3.144 2.519 5.352 16.383 4.982 28.952-.37 12.568-.617 21.197 1.86 27.937 2.479 6.74 4.948 21.905 26.04 17.386 17.623-3.777 26.756-13.564 28.027-29.89.901-11.606 2.942-9.89 3.07-20.267l1.637-4.912c1.887-15.733.3-20.809 11.157-18.448l2.64.232c7.99.363 18.45-1.286 24.589-4.139 13.218-6.134 21.058-16.377 8.024-13.686h.002"></path>
      <path fill="#FFF"
        d="M108.076 81.525c-2.68-.373-5.107-.028-6.335.902-.69.523-.904 1.129-.962 1.546-.154 1.105.62 2.327 1.096 2.957 1.346 1.784 3.312 3.01 5.258 3.28.282.04.563.058.842.058 3.245 0 6.196-2.527 6.456-4.392.325-2.336-3.066-3.893-6.355-4.35M196.86 81.599c-.256-1.831-3.514-2.353-6.606-1.923-3.088.43-6.082 1.824-5.832 3.659.2 1.427 2.777 3.863 5.827 3.863.258 0 .518-.017.78-.054 2.036-.282 3.53-1.575 4.24-2.32 1.08-1.136 1.706-2.402 1.591-3.225"></path>
      <path fill="#FFF"
        d="M247.802 160.025c-1.134-3.429-4.784-4.532-10.848-3.28-18.005 3.716-24.453 1.142-26.57-.417 13.995-21.32 25.508-47.092 31.719-71.137 2.942-11.39 4.567-21.968 4.7-30.59.147-9.463-1.465-16.417-4.789-20.665-13.402-17.125-33.072-26.311-56.882-26.563-16.369-.184-30.199 4.005-32.88 5.183-5.646-1.404-11.801-2.266-18.502-2.376-12.288-.199-22.91 2.743-31.704 8.74-3.82-1.422-13.692-4.811-25.765-6.756-20.872-3.36-37.458-.814-49.294 7.571-14.123 10.006-20.643 27.892-19.38 53.16.425 8.501 5.269 34.653 12.913 59.698 10.062 32.964 21 51.625 32.508 55.464 1.347.449 2.9.763 4.613.763 4.198 0 9.345-1.892 14.7-8.33a529.832 529.832 0 0 1 20.261-22.926c4.524 2.428 9.494 3.784 14.577 3.92.01.133.023.266.035.398a117.66 117.66 0 0 0-2.57 3.175c-3.522 4.471-4.255 5.402-15.592 7.736-3.225.666-11.79 2.431-11.916 8.435-.136 6.56 10.125 9.315 11.294 9.607 4.074 1.02 7.999 1.523 11.742 1.523 9.103 0 17.114-2.992 23.516-8.781-.197 23.386.778 46.43 3.586 53.451 2.3 5.748 7.918 19.795 25.664 19.794 2.604 0 5.47-.303 8.623-.979 18.521-3.97 26.564-12.156 29.675-30.203 1.665-9.645 4.522-32.676 5.866-45.03 2.836.885 6.487 1.29 10.434 1.289 8.232 0 17.731-1.749 23.688-4.514 6.692-3.108 18.768-10.734 16.578-17.36zm-44.106-83.48c-.061 3.647-.563 6.958-1.095 10.414-.573 3.717-1.165 7.56-1.314 12.225-.147 4.54.42 9.26.968 13.825 1.108 9.22 2.245 18.712-2.156 28.078a36.508 36.508 0 0 1-1.95-4.009c-.547-1.326-1.735-3.456-3.38-6.404-6.399-11.476-21.384-38.35-13.713-49.316 2.285-3.264 8.084-6.62 22.64-4.813zm-17.644-61.787c21.334.471 38.21 8.452 50.158 23.72 9.164 11.711-.927 64.998-30.14 110.969a171.33 171.33 0 0 0-.886-1.117l-.37-.462c7.549-12.467 6.073-24.802 4.759-35.738-.54-4.488-1.05-8.727-.92-12.709.134-4.22.692-7.84 1.232-11.34.663-4.313 1.338-8.776 1.152-14.037.139-.552.195-1.204.122-1.978-.475-5.045-6.235-20.144-17.975-33.81-6.422-7.475-15.787-15.84-28.574-21.482 5.5-1.14 13.021-2.203 21.442-2.016zM66.674 175.778c-5.9 7.094-9.974 5.734-11.314 5.288-8.73-2.912-18.86-21.364-27.791-50.624-7.728-25.318-12.244-50.777-12.602-57.916-1.128-22.578 4.345-38.313 16.268-46.769 19.404-13.76 51.306-5.524 64.125-1.347-.184.182-.376.352-.558.537-21.036 21.244-20.537 57.54-20.485 59.759-.002.856.07 2.068.168 3.735.362 6.105 1.036 17.467-.764 30.334-1.672 11.957 2.014 23.66 10.111 32.109a36.275 36.275 0 0 0 2.617 2.468c-3.604 3.86-11.437 12.396-19.775 22.426zm22.479-29.993c-6.526-6.81-9.49-16.282-8.133-25.99 1.9-13.592 1.199-25.43.822-31.79-.053-.89-.1-1.67-.127-2.285 3.073-2.725 17.314-10.355 27.47-8.028 4.634 1.061 7.458 4.217 8.632 9.645 6.076 28.103.804 39.816-3.432 49.229-.873 1.939-1.698 3.772-2.402 5.668l-.546 1.466c-1.382 3.706-2.668 7.152-3.465 10.424-6.938-.02-13.687-2.984-18.819-8.34zm1.065 37.9c-2.026-.506-3.848-1.385-4.917-2.114.893-.42 2.482-.992 5.238-1.56 13.337-2.745 15.397-4.683 19.895-10.394 1.031-1.31 2.2-2.794 3.819-4.602l.002-.002c2.411-2.7 3.514-2.242 5.514-1.412 1.621.67 3.2 2.702 3.84 4.938.303 1.056.643 3.06-.47 4.62-9.396 13.156-23.088 12.987-32.921 10.526zm69.799 64.952c-16.316 3.496-22.093-4.829-25.9-14.346-2.457-6.144-3.665-33.85-2.808-64.447.011-.407-.047-.8-.159-1.17a15.444 15.444 0 0 0-.456-2.162c-1.274-4.452-4.379-8.176-8.104-9.72-1.48-.613-4.196-1.738-7.46-.903.696-2.868 1.903-6.107 3.212-9.614l.549-1.475c.618-1.663 1.394-3.386 2.214-5.21 4.433-9.848 10.504-23.337 3.915-53.81-2.468-11.414-10.71-16.988-23.204-15.693-7.49.775-14.343 3.797-17.761 5.53-.735.372-1.407.732-2.035 1.082.954-11.5 4.558-32.992 18.04-46.59 8.489-8.56 19.794-12.788 33.568-12.56 27.14.444 44.544 14.372 54.366 25.979 8.464 10.001 13.047 20.076 14.876 25.51-13.755-1.399-23.11 1.316-27.852 8.096-10.317 14.748 5.644 43.372 13.315 57.129 1.407 2.521 2.621 4.7 3.003 5.626 2.498 6.054 5.732 10.096 8.093 13.046.724.904 1.426 1.781 1.96 2.547-4.166 1.201-11.649 3.976-10.967 17.847-.55 6.96-4.461 39.546-6.448 51.059-2.623 15.21-8.22 20.875-23.957 24.25zm68.104-77.936c-4.26 1.977-11.389 3.46-18.161 3.779-7.48.35-11.288-.838-12.184-1.569-.42-8.644 2.797-9.547 6.202-10.503.535-.15 1.057-.297 1.561-.473.313.255.656.508 1.032.756 6.012 3.968 16.735 4.396 31.874 1.271l.166-.033c-2.042 1.909-5.536 4.471-10.49 6.772z"></path>
    </svg>
  </symbol>

  <symbol id="icon-aws" viewBox="0 -100 512 512">
    <svg xmlns="http://www.w3.org/2000/svg" width="512" height="512" id="aws">
      <path fill="#252f3e"
        d="M148.232 114.237a52.931 52.931 0 0 0 1.924 15.57 93.64 93.64 0 0 0 5.6 12.6 7.61 7.61 0 0 1 1.225 4.024c0 1.749-1.05 3.5-3.324 5.248l-11.021 7.348a8.388 8.388 0 0 1-4.548 1.574 8.05 8.05 0 0 1-5.248-2.449 54.121 54.121 0 0 1-6.3-8.222c-1.749-2.974-3.5-6.3-5.423-10.322q-20.468 24.138-51.434 24.138c-14.7 0-26.416-4.2-34.988-12.6s-12.946-19.59-12.946-33.585c0-14.87 5.248-26.941 15.92-36.038s24.841-13.646 42.86-13.646a138.511 138.511 0 0 1 18.544 1.4c6.473.875 13.121 2.274 20.118 3.849V60.355c0-13.3-2.8-22.567-8.222-27.991-5.6-5.423-15.045-8.047-28.516-8.047a79.6 79.6 0 0 0-18.894 2.274 139.4 139.4 0 0 0-18.894 5.948 50.2 50.2 0 0 1-6.123 2.274 10.73 10.73 0 0 1-2.8.525c-2.449 0-3.674-1.749-3.674-5.423v-8.572c0-2.8.35-4.9 1.225-6.123a13.1 13.1 0 0 1 4.9-3.674 100.716 100.716 0 0 1 22.043-7.872A106.062 106.062 0 0 1 87.527.35c20.822 0 36.038 4.723 45.835 14.17 9.622 9.447 14.52 23.792 14.52 43.036v56.681Zm-71.026 26.591a56.7 56.7 0 0 0 18.019-3.149 38.984 38.984 0 0 0 16.619-11.2 27.768 27.768 0 0 0 5.948-11.2 62.8 62.8 0 0 0 1.749-15.22v-7.34a146.1 146.1 0 0 0-16.092-2.974A131.821 131.821 0 0 0 87.002 88.7c-11.721 0-20.293 2.274-26.066 7s-8.572 11.371-8.572 20.118c0 8.222 2.1 14.345 6.473 18.544 4.2 4.374 10.322 6.473 18.369 6.473Zm140.478 18.894c-3.149 0-5.248-.525-6.648-1.749-1.4-1.05-2.624-3.5-3.674-6.823L166.249 15.92a30.644 30.644 0 0 1-1.574-7c0-2.8 1.4-4.374 4.2-4.374h17.144c3.324 0 5.6.525 6.823 1.749 1.4 1.05 2.449 3.5 3.5 6.823l29.39 115.811 27.29-115.808c.875-3.5 1.924-5.773 3.324-6.823s3.849-1.749 7-1.749h14c3.324 0 5.6.525 7 1.749 1.4 1.05 2.624 3.5 3.324 6.823l27.641 117.211 30.255-117.211c1.05-3.5 2.274-5.773 3.5-6.823 1.4-1.05 3.674-1.749 6.823-1.749h16.27c2.8 0 4.374 1.4 4.374 4.374a17.445 17.445 0 0 1-.35 2.8 24.891 24.891 0 0 1-1.225 4.374l-42.161 135.23q-1.574 5.248-3.674 6.823a11.192 11.192 0 0 1-6.648 1.749h-15.046c-3.324 0-5.6-.525-7-1.749s-2.624-3.5-3.324-7L269.991 38.312l-26.942 112.663c-.875 3.5-1.924 5.773-3.324 7s-3.849 1.749-7 1.749Zm224.8 4.723a115.767 115.767 0 0 1-26.941-3.149c-8.747-2.1-15.57-4.374-20.118-7-2.8-1.574-4.723-3.324-5.423-4.9a12.349 12.349 0 0 1-1.05-4.9v-8.916c0-3.674 1.4-5.423 4.024-5.423a9.906 9.906 0 0 1 3.149.525c1.05.35 2.624 1.05 4.374 1.749a95.157 95.157 0 0 0 19.244 6.123 105.06 105.06 0 0 0 20.818 2.1c11.021 0 19.594-1.924 25.542-5.773a18.839 18.839 0 0 0 9.1-16.619 17.037 17.037 0 0 0-4.723-12.246c-3.149-3.324-9.1-6.3-17.669-9.1l-25.372-7.871c-12.771-4.023-22.218-9.971-27.99-17.845a41.68 41.68 0 0 1-8.747-25.367 38.934 38.934 0 0 1 4.723-19.419 44.982 44.982 0 0 1 12.6-14.345 55.525 55.525 0 0 1 18.194-9.1A76.248 76.248 0 0 1 448.257 0a87.822 87.822 0 0 1 11.721.7c4.024.525 7.7 1.225 11.371 1.924 3.5.875 6.823 1.749 9.972 2.8a38.181 38.181 0 0 1 7.348 3.149 15.128 15.128 0 0 1 5.248 4.374 9.428 9.428 0 0 1 1.574 5.773v8.222c0 3.674-1.4 5.6-4.024 5.6-1.4 0-3.674-.7-6.648-2.1q-14.958-6.823-33.589-6.823c-9.972 0-17.844 1.574-23.267 4.9s-8.222 8.4-8.222 15.57a16.52 16.52 0 0 0 5.248 12.421c3.5 3.324 9.972 6.648 19.244 9.622L469.075 74c12.6 4.024 21.693 9.622 27.116 16.794a39.587 39.587 0 0 1 8.047 24.492 44.973 44.973 0 0 1-4.548 20.293 47.049 47.049 0 0 1-12.771 15.395 56.392 56.392 0 0 1-19.419 9.8 83.188 83.188 0 0 1-25.017 3.674Z"></path>
      <path fill="#f90"
        d="M475.548 249.464c-57.556 42.511-141.178 65.078-213.079 65.078-100.767.004-191.562-37.259-260.137-99.188-5.423-4.9-.525-11.546 5.948-7.7 74.175 43.036 165.67 69.1 260.313 69.1 63.854 0 134.005-13.3 198.559-40.587 9.622-4.374 17.844 6.3 8.4 13.3Z"></path>
      <path fill="#f90"
        d="M499.515 222.176c-7.348-9.447-48.634-4.548-67.353-2.274-5.6.7-6.473-4.2-1.4-7.872 32.889-23.092 86.946-16.445 93.244-8.747 6.3 7.872-1.749 61.929-32.539 87.821-4.723 4.024-9.272 1.924-7.173-3.324 6.999-17.32 22.569-56.332 15.221-65.604Z"></path>
    </svg>
  </symbol>

  <symbol id="icon-gc" viewBox="0 -10 142 142">
    <svg xmlns="http://www.w3.org/2000/svg" width="131.211" height="105.479" id="google-cloud">
      <g>
        <path fill="#ea4335"
          d="m87.26 29.12 11.405-11.406.758-4.8c-20.781-18.9-53.818-16.755-72.557 4.471a52.674 52.674 0 0 0-11.122 20.839l4.083-.578 22.811-3.755 1.758-1.8a28.573 28.573 0 0 1 39.017-3.164Z"></path>
        <path fill="#4285f4"
          d="M114.917 37.883a51.382 51.382 0 0 0-15.489-24.974L83.419 28.918a28.452 28.452 0 0 1 10.445 22.568v2.84a14.167 14.167 0 1 1 0 28.334h-28.53l-2.8 3.042v17.091l2.8 2.684h28.531a36.956 36.956 0 0 0 21.053-67.594"></path>
        <path fill="#34a853"
          d="M36.836 105.477h28.5V82.666h-28.5a14.04 14.04 0 0 1-5.842-1.278l-4.043 1.238-11.486 11.405-1 3.881a36.987 36.987 0 0 0 22.371 7.565"></path>
        <path fill="#fbbc05"
          d="M36.837 31.484a37.062 37.062 0 0 0-22.371 66.438l16.53-16.53a14.247 14.247 0 1 1 18.849-18.849l16.53-16.53a37.023 37.023 0 0 0-29.538-14.529"></path>
      </g>
    </svg>
  </symbol>

  <symbol id="icon-elixir" viewBox="0 0 512 512">
    <svg width="800px" height="800px" viewBox="0 0 50 50" xmlns="http://www.w3.org/2000/svg"
      xmlns:xlink="http://www.w3.org/1999/xlink">
      <defs>
        <linearGradient id="a" x1="17.249" y1="-335.597" x2="14.973" y2="-309.994"
          gradientTransform="matrix(1, 0, 0, -1, 0, -306)" gradientUnits="userSpaceOnUse">
          <stop offset="0" stop-color="#ffffff" stop-opacity="0" />
          <stop offset="0.01" stop-color="#f7f6f8" stop-opacity="0.04" />
          <stop offset="0.09" stop-color="#aa9cb3" stop-opacity="0.39" />
          <stop offset="0.2" stop-color="#6f567e" stop-opacity="0.66" />
          <stop offset="0.32" stop-color="#452459" stop-opacity="0.86" />
          <stop offset="0.5" stop-color="#2d0843" stop-opacity="0.97" />
          <stop offset="1" stop-color="#26003d" />
        </linearGradient>
      </defs>
      <path
        d="M17.8,8.591c2.079,4.584,7.64,6.5,7.141,12.474-.582,7.017-5.551,8.784-8.316,8.909a8.815,8.815,0,0,1-9.4-7.485C5.618,15.046,12.655,3.632,16.709,2A15.083,15.083,0,0,0,17.8,8.591Zm-.166,18.857a.423.423,0,0,0-.057-.327c-.593-1.1-5.81-1.645-6.907-1.752a8.272,8.272,0,0,0,1.635,1.3,7.766,7.766,0,0,0,2.814,1.041C15.922,27.831,17.467,27.933,17.635,27.447Z"
        style="fill:#7c648f" />
      <g style="opacity:0.25">
        <path
          d="M18.248,10.618c4.47,4.823,6.445,4.979,6.237,10.478-.249,6.476-4.543,8.191-7.058,8.42-4.2.551-7.495-1.528-8.358-5.686C7.312,17.063,12.978,6.023,16.637,4.36A15.323,15.323,0,0,0,18.258,10.6Z"
          style="fill:#26003d" />
      </g>
      <g style="opacity:0.75">
        <path
          d="M17.385,9.921C20.369,14,24.319,13.7,25,19.641c.094,6.923-3.6,9.283-6.237,9.948-4.5,1.279-8.514-.645-10.094-5-3.035-7,2.651-18.514,6.31-20.915a15.083,15.083,0,0,0,2.37,6.237Z"
          style="fill:url(#a)" />
      </g>
    </svg>
  </symbol>

  <symbol id="icon-docker" viewBox="0 0 512 512">
    <svg xmlns="http://www.w3.org/2000/svg" viewBox="0 0 24 24" id="docker">
      <path
        d="M23.77 11.08a5.12 5.12 0 0 0-2.41-.77 2.7 2.7 0 0 0-.44 0 4.24 4.24 0 0 0-1.64-2.26.5.5 0 0 0-.64.07 4.06 4.06 0 0 0-.72 3.28.52.52 0 0 1-.13.41.45.45 0 0 1-.34.15H17V9.5a.5.5 0 0 0-.5-.5H14V3.5a.5.5 0 0 0-.5-.5h-3a.5.5 0 0 0-.5.5V6H4.5a.5.5 0 0 0-.5.5V9H1.5a.5.5 0 0 0-.5.5V12H.5a.5.5 0 0 0-.5.5C0 20.17 5.59 21 8 21a14.29 14.29 0 0 0 12.38-7.08 5.13 5.13 0 0 0 3.55-2.17.5.5 0 0 0-.16-.67ZM16 12h-2v-2h2ZM5 12v-2h2v2Zm3 0v-2h2v2Zm5-5v2h-2V7Zm-2 5v-2h2v2Zm0-8h2v2h-2Zm-1 5H8V7h2ZM5 7h2v2H5Zm-3 3h2v2H2Zm3 7a1 1 0 1 1 1-1 1 1 0 0 1-1 1Z"
        fill="#303c42"></path>
    </svg>
  </symbol>

  <symbol id="icon-gh" viewBox="0 0 512 512">
    <svg xmlns="http://www.w3.org/2000/svg" xml:space="preserve" viewBox="0 0 16 16" id="github">
      <path d="M7.999 0C3.582 0 0 3.596 0 8.032a8.031 8.031 0 0 0 5.472 7.621c.4.074.546-.174.546-.387 0-.191-.007-.696-.011-1.366-2.225.485-2.695-1.077-2.695-1.077-.363-.928-.888-1.175-.888-1.175-.727-.498.054-.488.054-.488.803.057 1.225.828 1.225.828.714 1.227 1.873.873 2.329.667.072-.519.279-.873.508-1.074-1.776-.203-3.644-.892-3.644-3.969 0-.877.312-1.594.824-2.156-.083-.203-.357-1.02.078-2.125 0 0 .672-.216 2.2.823a7.633 7.633 0 0 1 2.003-.27 7.65 7.65 0 0 1 2.003.271c1.527-1.039 2.198-.823 2.198-.823.436 1.106.162 1.922.08 2.125.513.562.822 1.279.822 2.156 0 3.085-1.87 3.764-3.652 3.963.287.248.543.738.543 1.487 0 1.074-.01 1.94-.01 2.203 0 .215.144.465.55.386A8.032 8.032 0 0 0 16 8.032C16 3.596 12.418 0 7.999 0z"></path>
    </svg>
  </symbol>

  <symbol id="icon-linkedin" viewBox="0 0 512 512">
    <svg xmlns="http://www.w3.org/2000/svg" width="512" height="512" viewBox="0 0 72 72"
      id="linkedin">
      <g fill="none" fill-rule="evenodd">
        <g>
          <rect width="72" height="72" fill="#117EB8" rx="4"></rect>
          <path fill="#FFF"
            d="M13.139 27.848h9.623V58.81h-9.623V27.848zm4.813-15.391c3.077 0 5.577 2.5 5.577 5.577 0 3.08-2.5 5.581-5.577 5.581a5.58 5.58 0 1 1 0-11.158zm10.846 15.39h9.23v4.231h.128c1.285-2.434 4.424-5 9.105-5 9.744 0 11.544 6.413 11.544 14.75V58.81h-9.617V43.753c0-3.59-.066-8.209-5-8.209-5.007 0-5.776 3.911-5.776 7.95V58.81h-9.615V27.848z"></path>
        </g>
      </g>
    </svg>
  </symbol>

  <symbol id="icon-resume" viewBox="0 0 512 512">
    <svg xmlns="http://www.w3.org/2000/svg" fill-rule="evenodd" stroke-linejoin="round"
      stroke-miterlimit="2" clip-rule="evenodd" viewBox="0 0 32 32" id="cv">
      <path
        d="M4,2c-0.552,0 -1,0.448 -1,1l0,26c0,0.552 0.448,1 1,1l13,0c0.552,0 1,-0.448 1,-1c0,-0.552 -0.448,-1 -1,-1l-12,0l0,-24l18,0l0,11c0,0.552 0.448,1 1,1c0.552,0 1,-0.448 1,-1l0,-12c0,-0.552 -0.448,-1 -1,-1l-20,0Zm10,3c-1.646,0 -3,1.354 -3,3c0,1.646 1.354,3 3,3c1.646,0 3,-1.354 3,-3c0,-1.646 -1.354,-3 -3,-3Zm0,7c-2.76,0 -5,2.24 -5,5c0,0.552 0.448,1 1,1l8,0c0.552,0 1,-0.448 1,-1c0,-2.76 -2.24,-5 -5,-5Zm10,6c-3.292,0 -6,2.708 -6,6c0,3.292 2.708,6 6,6c3.292,0 6,-2.708 6,-6c0,-3.292 -2.708,-6 -6,-6Zm-15,2c-0.552,0 -1,0.448 -1,1c0,0.552 0.448,1 1,1l6,0c0.552,0 1,-0.448 1,-1c0,-0.552 -0.448,-1 -1,-1l-6,0Zm16.5,2c0.256,0 0.512,0.098 0.707,0.293c0.39,0.39 0.39,1.024 0,1.414l-2,2c-0.39,0.391 -1.024,0.391 -1.414,0l-1,-1c-0.39,-0.39 -0.39,-1.024 -0,-1.414c0.39,-0.39 1.024,-0.39 1.414,-0l0.293,0.293l1.293,-1.293c0.195,-0.195 0.451,-0.293 0.707,-0.293Zm-16.5,2c-0.552,0 -1,0.448 -1,1c0,0.552 0.448,1 1,1l6,0c0.552,0 1,-0.448 1,-1c0,-0.552 -0.448,-1 -1,-1l-6,0Z"></path>
    </svg>
  </symbol>


</svg>